<?xml version="1.0" encoding="UTF-8"?>
<svg width="1200pt" height="1200pt" version="1.1" viewBox="0 0 1200 1200" xmlns="http://www.w3.org/2000/svg">
 <path d="m583.88 269.38c-82.371 0-172.96 38.312-221.81 92.727-96.02 96.945-118.07 245.23-54.617 366.04 63.445 120.8 198.09 186.66 332.4 162.62 29.797-5.1406 21.723-49.891-7.9805-44.301-115.2 20.609-230.31-35.613-284.72-139.22-54.418-103.61-35.422-230.29 46.934-313.44 82.355-83.148 208.83-103.38 312.95-49.961 104.12 53.418 161.58 168.01 142.07 283.41-6.4727 30.57 40.395 38.465 44.301 7.4727 22.742-134.54-44.379-268.58-165.79-330.87-45.527-23.359-94.855-34.617-143.74-34.465zm109.41 162.89 41.492 41.488c21.109 23.07 54.812-10.492 31.832-31.699l-41.488-41.445c-21.141-21.137-54.215 9.2734-31.832 31.656zm-108.71 23.926c-69.484 0-126.27 56.789-126.27 126.27 0 69.484 56.789 126.27 126.27 126.27s126.27-56.789 126.27-126.27c0-69.484-56.789-126.27-126.27-126.27zm0 44.957c45.184 0 81.312 36.129 81.312 81.312 0 45.184-36.125 81.312-81.312 81.312s-81.312-36.125-81.312-81.312c0-45.184 36.129-81.312 81.312-81.312zm142.03 183.21c6.9102 17.34 8.043 22.434 6.1602 32.492-1.9023 10.059-9.2812 27.27-23.531 57.91-19.258 37.074-25.984 63.984-9.3086 106.21 24.637 51.934 118.99 56.395 160.96 43.641 36.906-11 57.34-47.387 65.242-84.43 7.9258-37.125-4.8203-86.539-30.559-105.9-11.582-8.6406-28.203-4.2773-34.027 8.957-9.168 20.828-15.203 33.469-20.066 40.172-2.0898 4.2656-9.3828 13.668-12.957 5.9727-0.44531-14.07-0.44531-43.84-8.1211-62.566-17.137-36.367-37.621-62.914-66.383-72.355-19.484-6.0977-37.613 12.91-27.402 29.898zm-324.06 17.914 41.664 41.492c21.246 21.996 53.816-10.75 31.699-31.875l-41.492-41.488c-20.957-20.957-53.527 10.223-31.875 31.875zm370.69 32.535c14.008 12.402 9.8477 38.863 10.32 55.891-3.6875 34.848 32.695 54.867 56.418 47.637 20.207-7.9961 28.184-15.656 37.496-28.363 4.0977 7.2109 1.293 7.8828 2.1953 19.844 0.26953 18.816-16.242 49.152-34.051 54.293-33.855 9.668-72.555 5.6484-93.562-20.223-14.996-20.211-17.195-47.516-7.4336-62.562 19.348-27.645 29.086-47.496 28.625-66.516z"/>
</svg>
